<?xml version="1.0" standalone="no"?>
<!DOCTYPE svg PUBLIC "-//W3C//DTD SVG 20010904//EN"
 "http://www.w3.org/TR/2001/REC-SVG-20010904/DTD/svg10.dtd">
<svg version="1.0" xmlns="http://www.w3.org/2000/svg"
 width="392.000000pt" height="392.000000pt" viewBox="0 0 392.000000 392.000000"
 preserveAspectRatio="xMidYMid meet">
<metadata>
Created by potrace 1.14, written by Peter Selinger 2001-2017
</metadata>
<g transform="translate(0.000000,392.000000) scale(0.100000,-0.100000)"
fill="#000000" stroke="none">
<path d="M2929 3163 c-149 -48 -166 -264 -26 -332 137 -66 285 41 263 191 -16
109 -129 176 -237 141z"/>
<path d="M1235 2500 c-258 -61 -431 -249 -501 -545 -10 -43 -18 -124 -20 -210
-3 -158 14 -258 63 -387 121 -310 425 -475 754 -408 149 31 257 96 338 207 25
34 52 62 59 62 19 1 16 -361 -4 -437 -47 -181 -202 -273 -459 -274 -198 -1
-359 74 -397 184 l-10 28 -139 0 c-77 0 -139 -4 -139 -9 0 -29 41 -134 67
-172 94 -135 210 -205 413 -249 123 -26 349 -21 475 12 188 48 343 169 414
322 50 108 51 121 51 1024 l0 842 -32 0 c-18 1 -78 1 -133 2 l-100 1 0 -137
c0 -75 -3 -136 -7 -136 -4 0 -20 19 -35 43 -44 69 -144 160 -216 195 -125 62
-293 78 -442 42z m330 -225 c107 -20 237 -111 293 -205 25 -43 60 -130 67
-168 2 -15 8 -47 12 -72 16 -88 3 -241 -28 -334 -44 -133 -152 -249 -277 -297
-70 -27 -236 -35 -304 -15 -133 41 -223 116 -281 236 -36 76 -41 93 -57 190
-9 57 -6 210 5 270 40 217 189 375 375 397 25 3 47 7 49 9 5 5 96 -2 146 -11z"/>
<path d="M2880 2492 l-25 -3 0 -908 -1 -908 -25 -49 c-37 -72 -101 -102 -227
-103 l-33 -1 3 -117 3 -118 47 1 c286 6 426 99 485 321 4 15 9 445 10 956 3
749 1 927 -9 927 -98 4 -208 4 -228 2z"/>
</g>
</svg>
